<svg version="1.1" id="Layer_1" xmlns="http://www.w3.org/2000/svg" xmlns:xlink="http://www.w3.org/1999/xlink" x="0px" y="0px"
	 width="100%" viewBox="0 0 1280 1280" enable-background="new 0 0 1280 1280" xml:space="preserve">
<path fill="#000000" opacity="1.000000" stroke="none" 
	d="
M719.000000,1281.000000 
	C479.333344,1281.000000 240.166672,1281.000000 1.000000,1281.000000 
	C1.000000,854.333313 1.000000,427.666656 1.000000,1.000000 
	C427.666656,1.000000 854.333313,1.000000 1281.000000,1.000000 
	C1281.000000,427.666656 1281.000000,854.333313 1281.000000,1281.000000 
	C1093.833374,1281.000000 906.666687,1281.000000 719.000000,1281.000000 
M829.184082,779.954651 
	C819.251038,779.954651 809.317993,779.954651 799.439209,779.954651 
	C799.439209,784.388489 799.439209,788.092285 799.439209,792.000000 
	C801.869873,792.000000 803.863525,792.000000 805.857117,792.000000 
	C847.843689,792.000000 889.830811,792.109009 931.816467,791.909485 
	C940.365234,791.868835 948.987854,791.185730 957.437256,789.890564 
	C973.932617,787.362061 989.423828,781.817871 1003.590759,772.776733 
	C1015.918640,764.909302 1026.277588,754.763062 1032.400391,741.717957 
	C1041.625854,722.062622 1044.171875,701.279541 1038.078491,679.824646 
	C1034.519287,667.292419 1027.930298,656.650940 1018.440613,648.198242 
	C1005.954834,637.076904 991.260254,629.348816 975.386841,623.996826 
	C968.193237,621.571350 960.959473,619.265137 953.134766,616.705566 
	C954.989624,615.932373 956.008911,615.302002 957.110596,615.079407 
	C971.477234,612.176697 985.268799,607.606506 998.061340,600.407227 
	C1010.263672,593.540039 1020.768005,584.806519 1027.026978,571.853271 
	C1032.485962,560.555542 1033.641357,548.561157 1033.039795,536.198486 
	C1032.228027,519.522278 1024.937744,506.270111 1012.044617,496.069946 
	C1003.235779,489.101044 993.111938,484.376251 982.148926,482.161652 
	C968.216736,479.347229 954.153381,475.594940 940.087280,475.323639 
	C894.951782,474.453156 849.789001,475.000061 804.636719,475.000092 
	C802.873962,475.000092 801.111206,475.000092 799.278381,475.000092 
	C799.278381,479.306702 799.278381,482.895477 799.278381,487.112793 
	C809.922485,487.112793 820.305176,487.112793 830.799194,487.112793 
	C830.885193,489.053955 830.994141,490.367401 830.994202,491.680847 
	C831.002258,586.150696 831.005798,680.620544 830.964844,775.090393 
	C830.964172,776.658264 830.413391,778.225830 829.184082,779.954651 
M1111.665894,633.926575 
	C1120.383301,639.070129 1128.909912,644.576538 1137.857666,649.281921 
	C1156.689331,659.185059 1175.894897,668.382263 1194.651001,678.422119 
	C1207.516113,685.308594 1216.234375,696.303101 1220.830811,710.097900 
	C1224.132812,720.007507 1224.587524,730.244751 1223.196045,740.790649 
	C1221.851318,750.983398 1218.073730,760.169373 1211.512573,767.325623 
	C1197.283081,782.845703 1178.797119,786.402710 1158.721069,782.271057 
	C1140.438110,778.508362 1127.211304,766.872009 1116.413330,752.572388 
	C1104.717163,737.083191 1095.865845,719.966431 1090.835693,701.041687 
	C1090.527832,699.883606 1089.109985,698.212524 1088.146118,698.169006 
	C1082.225708,697.902100 1076.287476,698.035278 1070.000000,698.035278 
	C1070.000000,700.509338 1070.000000,702.315369 1070.000000,704.121399 
	C1070.000000,725.783142 1070.265381,747.450317 1069.825317,769.103149 
	C1069.705811,774.984741 1072.116699,778.075562 1076.865356,779.905090 
	C1086.014404,783.429871 1095.078491,787.500366 1104.554810,789.771545 
	C1117.882690,792.965881 1131.566772,794.657837 1145.074829,797.121521 
	C1159.357300,799.726257 1173.752930,800.228455 1188.012817,797.904053 
	C1215.547363,793.415833 1235.475830,777.308777 1249.276123,753.973083 
	C1262.853760,731.014160 1267.228271,706.042847 1262.225342,679.401062 
	C1260.076538,667.958069 1256.479370,657.263367 1250.975220,647.211609 
	C1239.473755,626.207092 1222.125977,611.351318 1200.779297,600.962952 
	C1182.187256,591.915222 1163.322388,583.396423 1145.005981,573.825073 
	C1133.496338,567.810669 1123.992432,559.156799 1120.106567,545.993530 
	C1118.593384,540.867859 1116.963135,535.669373 1116.396851,530.395569 
	C1115.429810,521.390198 1115.616455,512.475342 1119.903076,503.935638 
	C1124.106323,495.561859 1130.845215,490.594208 1139.210449,487.393982 
	C1154.152466,481.677582 1169.147583,481.142487 1183.315552,489.229889 
	C1201.831299,499.798981 1213.058838,516.694763 1220.954346,535.916260 
	C1224.489258,544.521729 1226.926147,553.573975 1230.065796,562.350281 
	C1230.569702,563.758850 1232.061890,565.708191 1233.246338,565.819519 
	C1237.650879,566.233521 1242.117798,565.984680 1246.320312,565.984680 
	C1246.670044,565.084717 1246.886353,564.787231 1246.886963,564.489319 
	C1246.934448,541.996277 1247.022705,519.502747 1246.856323,497.011139 
	C1246.846191,495.636108 1245.088501,493.593292 1243.673096,493.016754 
	C1232.013550,488.267090 1220.441284,483.163330 1208.460815,479.372955 
	C1188.467651,473.047394 1168.124512,469.181061 1146.821289,471.844727 
	C1126.743774,474.355133 1110.274780,483.335876 1097.523926,498.405762 
	C1084.655884,513.614136 1078.420776,531.939697 1078.141724,551.870300 
	C1078.001221,561.900879 1078.332397,572.156006 1080.305054,581.935547 
	C1082.187988,591.269958 1085.136719,600.943970 1090.067261,608.961975 
	C1095.640259,618.024963 1103.944214,625.408630 1111.665894,633.926575 
M745.999756,528.500000 
	C745.999756,514.752808 745.999756,501.005585 745.999756,486.812988 
	C756.400208,486.812988 765.995117,486.812988 775.577332,486.812988 
	C775.577332,482.637299 775.577332,478.935608 775.577332,475.335663 
	C749.234192,475.335663 723.314697,475.335663 697.435303,475.335663 
	C697.435303,479.389191 697.435303,483.090973 697.435303,487.245026 
	C708.458069,487.245026 719.049805,487.245026 730.000488,487.245026 
	C730.000488,489.678223 730.000488,491.651337 730.000488,493.624451 
	C730.000488,555.947510 730.034302,618.270691 729.956787,680.593628 
	C729.947327,688.200195 729.304443,695.804565 729.018677,703.412354 
	C728.522339,716.628052 726.377136,729.437195 721.034485,741.695190 
	C714.846558,755.892395 706.399353,768.013428 691.397583,773.695618 
	C677.885254,778.813660 663.932495,779.596130 649.714600,776.092957 
	C635.244080,772.527588 626.000061,763.718323 620.861328,749.903687 
	C616.241638,737.484741 615.250549,724.442444 615.183472,711.571289 
	C614.803101,638.585327 614.998840,565.596252 614.998535,492.608246 
	C614.998535,490.850098 614.998535,489.091980 614.998535,486.884521 
	C626.326172,486.884521 636.920349,486.884521 647.617188,486.884521 
	C647.617188,482.714691 647.617188,479.011230 647.617188,475.295654 
	C604.981812,475.295654 562.731262,475.295654 520.393616,475.295654 
	C520.393616,479.302826 520.393616,483.006256 520.393616,487.164612 
	C531.040161,487.164612 541.299316,487.164612 551.998779,487.164612 
	C551.998779,489.584717 551.998718,491.547424 551.998718,493.510101 
	C551.999207,561.165649 551.981445,628.821167 552.042114,696.476685 
	C552.046082,700.917297 552.755615,705.352661 552.956177,709.798584 
	C553.644470,725.060913 557.697388,739.426392 564.216797,753.174316 
	C569.347900,763.994629 576.920837,772.975037 586.604553,779.677673 
	C602.380981,790.597290 620.559814,795.215332 639.465393,795.796326 
	C652.306152,796.190918 665.309387,795.478210 678.055664,793.832886 
	C699.727112,791.035583 716.666504,779.488647 728.583923,761.510803 
	C740.027893,744.247131 745.722046,724.613037 745.862183,703.970398 
	C746.257019,645.815979 745.999939,587.657104 745.999756,528.500000 
z"/>
<path fill="#CC2229" opacity="1.000000" stroke="none" 
	d="
M829.651672,779.874146 
	C830.413391,778.225830 830.964172,776.658264 830.964844,775.090393 
	C831.005798,680.620544 831.002258,586.150696 830.994202,491.680847 
	C830.994141,490.367401 830.885193,489.053955 830.799194,487.112793 
	C820.305176,487.112793 809.922485,487.112793 799.278381,487.112793 
	C799.278381,482.895477 799.278381,479.306702 799.278381,475.000092 
	C801.111206,475.000092 802.873962,475.000092 804.636719,475.000092 
	C849.789001,475.000061 894.951782,474.453156 940.087280,475.323639 
	C954.153381,475.594940 968.216736,479.347229 982.148926,482.161652 
	C993.111938,484.376251 1003.235779,489.101044 1012.044617,496.069946 
	C1024.937744,506.270111 1032.228027,519.522278 1033.039795,536.198486 
	C1033.641357,548.561157 1032.485962,560.555542 1027.026978,571.853271 
	C1020.768005,584.806519 1010.263672,593.540039 998.061340,600.407227 
	C985.268799,607.606506 971.477234,612.176697 957.110596,615.079407 
	C956.008911,615.302002 954.989624,615.932373 953.134766,616.705566 
	C960.959473,619.265137 968.193237,621.571350 975.386841,623.996826 
	C991.260254,629.348816 1005.954834,637.076904 1018.440613,648.198242 
	C1027.930298,656.650940 1034.519287,667.292419 1038.078491,679.824646 
	C1044.171875,701.279541 1041.625854,722.062622 1032.400391,741.717957 
	C1026.277588,754.763062 1015.918640,764.909302 1003.590759,772.776733 
	C989.423828,781.817871 973.932617,787.362061 957.437256,789.890564 
	C948.987854,791.185730 940.365234,791.868835 931.816467,791.909485 
	C889.830811,792.109009 847.843689,792.000000 805.857117,792.000000 
	C803.863525,792.000000 801.869873,792.000000 799.439209,792.000000 
	C799.439209,788.092285 799.439209,784.388489 799.439209,779.954651 
	C809.317993,779.954651 819.251038,779.954651 829.651672,779.874146 
M968.562561,667.077332 
	C968.027771,664.185120 967.678223,661.243713 966.925903,658.409241 
	C963.877808,646.925659 959.187561,636.464722 948.929688,629.380981 
	C941.972717,624.576721 934.107544,622.121704 925.940369,621.608276 
	C915.427368,620.947449 904.841309,621.447449 894.285461,621.447449 
	C894.285461,674.356445 894.285461,726.922668 894.285461,780.976929 
	C908.943237,779.882080 923.373230,779.759827 937.452087,777.474365 
	C950.612305,775.338013 960.856201,767.283752 964.664978,754.107788 
	C967.595093,743.971375 969.436218,733.226074 969.748108,722.692017 
	C970.287903,704.456421 969.267334,686.174683 968.562561,667.077332 
M963.999512,535.526733 
	C963.318848,529.165466 963.126099,522.705017 961.857849,516.463196 
	C959.039795,502.593689 950.569641,493.885956 936.862610,489.804688 
	C924.854675,486.229340 912.651367,487.212097 900.469666,487.005066 
	C898.392822,486.969757 896.314941,487.000061 894.288208,487.000061 
	C894.288208,528.053101 894.288208,568.273071 894.288208,609.493958 
	C906.140747,608.941956 917.714172,608.844604 929.186279,607.716980 
	C937.132629,606.935852 944.020020,602.940857 950.004150,597.526123 
	C959.802551,588.659851 962.833496,576.823364 963.849426,564.472900 
	C964.611084,555.213318 963.999634,545.840698 963.999512,535.526733 
z"/>
<path fill="#CC2229" opacity="1.000000" stroke="none" 
	d="
M1111.363281,633.724609 
	C1103.944214,625.408630 1095.640259,618.024963 1090.067261,608.961975 
	C1085.136719,600.943970 1082.187988,591.269958 1080.305054,581.935547 
	C1078.332397,572.156006 1078.001221,561.900879 1078.141724,551.870300 
	C1078.420776,531.939697 1084.655884,513.614136 1097.523926,498.405762 
	C1110.274780,483.335876 1126.743774,474.355133 1146.821289,471.844727 
	C1168.124512,469.181061 1188.467651,473.047394 1208.460815,479.372955 
	C1220.441284,483.163330 1232.013550,488.267090 1243.673096,493.016754 
	C1245.088501,493.593292 1246.846191,495.636108 1246.856323,497.011139 
	C1247.022705,519.502747 1246.934448,541.996277 1246.886963,564.489319 
	C1246.886353,564.787231 1246.670044,565.084717 1246.320312,565.984680 
	C1242.117798,565.984680 1237.650879,566.233521 1233.246338,565.819519 
	C1232.061890,565.708191 1230.569702,563.758850 1230.065796,562.350281 
	C1226.926147,553.573975 1224.489258,544.521729 1220.954346,535.916260 
	C1213.058838,516.694763 1201.831299,499.798981 1183.315552,489.229889 
	C1169.147583,481.142487 1154.152466,481.677582 1139.210449,487.393982 
	C1130.845215,490.594208 1124.106323,495.561859 1119.903076,503.935638 
	C1115.616455,512.475342 1115.429810,521.390198 1116.396851,530.395569 
	C1116.963135,535.669373 1118.593384,540.867859 1120.106567,545.993530 
	C1123.992432,559.156799 1133.496338,567.810669 1145.005981,573.825073 
	C1163.322388,583.396423 1182.187256,591.915222 1200.779297,600.962952 
	C1222.125977,611.351318 1239.473755,626.207092 1250.975220,647.211609 
	C1256.479370,657.263367 1260.076538,667.958069 1262.225342,679.401062 
	C1267.228271,706.042847 1262.853760,731.014160 1249.276123,753.973083 
	C1235.475830,777.308777 1215.547363,793.415833 1188.012817,797.904053 
	C1173.752930,800.228455 1159.357300,799.726257 1145.074829,797.121521 
	C1131.566772,794.657837 1117.882690,792.965881 1104.554810,789.771545 
	C1095.078491,787.500366 1086.014404,783.429871 1076.865356,779.905090 
	C1072.116699,778.075562 1069.705811,774.984741 1069.825317,769.103149 
	C1070.265381,747.450317 1070.000000,725.783142 1070.000000,704.121399 
	C1070.000000,702.315369 1070.000000,700.509338 1070.000000,698.035278 
	C1076.287476,698.035278 1082.225708,697.902100 1088.146118,698.169006 
	C1089.109985,698.212524 1090.527832,699.883606 1090.835693,701.041687 
	C1095.865845,719.966431 1104.717163,737.083191 1116.413330,752.572388 
	C1127.211304,766.872009 1140.438110,778.508362 1158.721069,782.271057 
	C1178.797119,786.402710 1197.283081,782.845703 1211.512573,767.325623 
	C1218.073730,760.169373 1221.851318,750.983398 1223.196045,740.790649 
	C1224.587524,730.244751 1224.132812,720.007507 1220.830811,710.097900 
	C1216.234375,696.303101 1207.516113,685.308594 1194.651001,678.422119 
	C1175.894897,668.382263 1156.689331,659.185059 1137.857666,649.281921 
	C1128.909912,644.576538 1120.383301,639.070129 1111.363281,633.724609 
z"/>
<path fill="#CC2229" opacity="1.000000" stroke="none" 
	d="
M745.999756,529.000000 
	C745.999939,587.657104 746.257019,645.815979 745.862183,703.970398 
	C745.722046,724.613037 740.027893,744.247131 728.583923,761.510803 
	C716.666504,779.488647 699.727112,791.035583 678.055664,793.832886 
	C665.309387,795.478210 652.306152,796.190918 639.465393,795.796326 
	C620.559814,795.215332 602.380981,790.597290 586.604553,779.677673 
	C576.920837,772.975037 569.347900,763.994629 564.216797,753.174316 
	C557.697388,739.426392 553.644470,725.060913 552.956177,709.798584 
	C552.755615,705.352661 552.046082,700.917297 552.042114,696.476685 
	C551.981445,628.821167 551.999207,561.165649 551.998718,493.510101 
	C551.998718,491.547424 551.998779,489.584717 551.998779,487.164612 
	C541.299316,487.164612 531.040161,487.164612 520.393616,487.164612 
	C520.393616,483.006256 520.393616,479.302826 520.393616,475.295654 
	C562.731262,475.295654 604.981812,475.295654 647.617188,475.295654 
	C647.617188,479.011230 647.617188,482.714691 647.617188,486.884521 
	C636.920349,486.884521 626.326172,486.884521 614.998535,486.884521 
	C614.998535,489.091980 614.998535,490.850098 614.998535,492.608246 
	C614.998840,565.596252 614.803101,638.585327 615.183472,711.571289 
	C615.250549,724.442444 616.241638,737.484741 620.861328,749.903687 
	C626.000061,763.718323 635.244080,772.527588 649.714600,776.092957 
	C663.932495,779.596130 677.885254,778.813660 691.397583,773.695618 
	C706.399353,768.013428 714.846558,755.892395 721.034485,741.695190 
	C726.377136,729.437195 728.522339,716.628052 729.018677,703.412354 
	C729.304443,695.804565 729.947327,688.200195 729.956787,680.593628 
	C730.034302,618.270691 730.000488,555.947510 730.000488,493.624451 
	C730.000488,491.651337 730.000488,489.678223 730.000488,487.245026 
	C719.049805,487.245026 708.458069,487.245026 697.435303,487.245026 
	C697.435303,483.090973 697.435303,479.389191 697.435303,475.335663 
	C723.314697,475.335663 749.234192,475.335663 775.577332,475.335663 
	C775.577332,478.935608 775.577332,482.637299 775.577332,486.812988 
	C765.995117,486.812988 756.400208,486.812988 745.999756,486.812988 
	C745.999756,501.005585 745.999756,514.752808 745.999756,529.000000 
z"/>
<path fill="#000000" opacity="1.000000" stroke="none" 
	d="
M968.731934,667.494812 
	C969.267334,686.174683 970.287903,704.456421 969.748108,722.692017 
	C969.436218,733.226074 967.595093,743.971375 964.664978,754.107788 
	C960.856201,767.283752 950.612305,775.338013 937.452087,777.474365 
	C923.373230,779.759827 908.943237,779.882080 894.285461,780.976929 
	C894.285461,726.922668 894.285461,674.356445 894.285461,621.447449 
	C904.841309,621.447449 915.427368,620.947449 925.940369,621.608276 
	C934.107544,622.121704 941.972717,624.576721 948.929688,629.380981 
	C959.187561,636.464722 963.877808,646.925659 966.925903,658.409241 
	C967.678223,661.243713 968.027771,664.185120 968.731934,667.494812 
z"/>
<path fill="#000000" opacity="1.000000" stroke="none" 
	d="
M963.999512,536.022583 
	C963.999634,545.840698 964.611084,555.213318 963.849426,564.472900 
	C962.833496,576.823364 959.802551,588.659851 950.004150,597.526123 
	C944.020020,602.940857 937.132629,606.935852 929.186279,607.716980 
	C917.714172,608.844604 906.140747,608.941956 894.288208,609.493958 
	C894.288208,568.273071 894.288208,528.053101 894.288208,487.000061 
	C896.314941,487.000061 898.392822,486.969757 900.469666,487.005066 
	C912.651367,487.212097 924.854675,486.229340 936.862610,489.804688 
	C950.569641,493.885956 959.039795,502.593689 961.857849,516.463196 
	C963.126099,522.705017 963.318848,529.165466 963.999512,536.022583 
z"/>
</svg>